# xmcd
#
# Track frame offsets: 
#        182
#        7142
#        25850
#        43637
#        53462
#        69997
#        84117
#        98542
#        113965
#        127300
#        139190
#        156285
#        164125
#        178550
#        194050
#
# Disc length: 2680 seconds
#
# Revision: 2
# Processed by: cddbd v1.5.2PL0 Copyright (c) Steve Scherf et al.
# Submitted via: ExactAudioCopy v1.0b3
#
DISCID=cc0a760f
DTITLE=Gaby Albrecht - Stille Zeit
DYEAR=1994
DGENRE=Pop
TTITLE0=Vom Himmel hoch
TTITLE1=Stille Zeit
TTITLE2=Süßer die Glocken nie klingen
TTITLE3=Leise rieselt der Schnee
TTITLE4=Frieden fängt im Herzen an
TTITLE5=Still still still
TTITLE6=Der kleine Trommler
TTITLE7=Weihnachten wie's früher war
TTITLE8=Aba heidschi bum beidschi
TTITLE9=Weihnachts-Wunderland
TTITLE10=Wenn Weihnachten Schnee fällt
TTITLE11=Kling Glöckchen klingelingeling
TTITLE12=Stille Nacht
TTITLE13=Halleluja
TTITLE14=Es ist ein Ros entsprungen
EXTD=74321 22659 2\r\n4321226592
EXTT0=
EXTT1=
EXTT2=
EXTT3=
EXTT4=
EXTT5=
EXTT6=
EXTT7=
EXTT8=
EXTT9=
EXTT10=
EXTT11=
EXTT12=
EXTT13=
EXTT14=
PLAYORDER=
